<svg width="26" height="26" xmlns="http://www.w3.org/2000/svg">
 <defs>
  <filter id="svg_2_blur">
   <feGaussianBlur stdDeviation="0" in="SourceGraphic"/>
  </filter>
 </defs>
 <g>
  <title>background</title>
  <rect fill="none" id="canvas_background" height="402" width="582" y="-1" x="-1"/>
 </g>
 <g>
  <title>Layer 1</title>
  <ellipse filter="url(#svg_2_blur)" ry="12.217975" rx="12.217973" id="svg_2" cy="13.001639" cx="13.019664" stroke-width="1.5" stroke="#ffffff" fill="#fff"/>
  <path id="svg_1" fill="#16324f" d="m21.058477,17.63619c-0.282675,-0.48155 -0.721401,-1.042419 -1.236778,-1.579697c-0.373011,-0.38939 -1.653587,-1.659005 -2.476967,-1.659005c-0.264193,0 -0.431879,0.117886 -0.525648,0.215769l-1.09646,1.143872c-0.018481,0.019293 -0.07734,0.041439 -0.183429,0.041439c-0.60846,0 -1.898619,-0.703043 -3.18741,-2.047677c-1.718616,-1.79475 -2.132012,-3.299428 -1.921895,-3.518775l1.095095,-1.143872c0.094456,-0.098593 0.207384,-0.27364 0.207384,-0.548715c0.000689,-0.860223 -1.216239,-2.197001 -1.589257,-2.586383c-0.372333,-0.38939 -1.652223,-1.659005 -2.476969,-1.659005c-0.263503,0 -0.431191,0.117176 -0.525646,0.215769l-2.192244,2.288454c-0.647477,0.675175 -0.411343,1.996237 0.702234,3.926022c0.966417,1.674728 2.496131,3.638094 4.305775,5.527155c3.21,3.350876 6.460376,5.602177 8.087966,5.60146c0.405182,0 0.730288,-0.125742 0.967791,-0.373665l2.192242,-2.288456c0.474314,-0.495129 0.007528,-1.292479 -0.145782,-1.554689zm-2.789761,3.067226c-0.024633,0.025005 -0.095819,0.052155 -0.224489,0.052155c-1.108105,0 -4.058702,-1.850485 -7.344668,-5.279947c-1.751472,-1.828332 -3.224373,-3.716677 -4.14836,-5.31781c-1.041024,-1.803332 -0.943149,-2.496366 -0.859648,-2.58353l2.063573,-2.154136c0.268976,0.108602 0.892498,0.522998 1.64469,1.308918s1.149854,1.436088 1.253888,1.716868l-0.96711,1.010264c-1.008168,1.052419 0.289518,3.365879 1.921894,5.070611c1.400353,1.461811 2.906792,2.369186 3.930709,2.369186c0.478421,0 0.767932,-0.197193 0.926726,-0.362951l0.967791,-1.00955c0.26898,0.108601 0.891819,0.523705 1.644699,1.308916c0.752188,0.785202 1.149847,1.436087 1.25388,1.716869l-2.063574,2.154137z"/>
 </g>
</svg>