<svg width="26" height="26" xmlns="http://www.w3.org/2000/svg">

 <g>
  <title>background</title>
  <rect fill="none" id="canvas_background" height="402" width="582" y="-1" x="-1"/>
 </g>
 <g>
  <title>Layer 1</title>
  <ellipse ry="12.169061" rx="12.169061" id="svg_2" cy="13.001639" cx="13" stroke-width="1.5" stroke="#ffffff" fill="#fff"/>
  <path id="svg_1" fill="#16324f" d="m20.106136,6.458518l-14.507266,0c-0.692469,0 -1.255451,0.631699 -1.255451,1.408163l0,10.659921c0,0.776463 0.562982,1.408161 1.255451,1.408161l14.507266,0c0.692471,0 1.255453,-0.631699 1.255453,-1.408161l0,-10.659921c0,-0.776464 -0.562983,-1.408163 -1.255453,-1.408163zm-5.362708,6.738354l5.554526,-4.232537l0,8.464655l-5.554526,-4.232118zm5.362708,-5.615334c0.037958,0 0.076433,0.02422 0.109846,0.060411l-7.363479,5.61094l-7.363478,-5.61094c0.033412,-0.036191 0.071888,-0.060411 0.109845,-0.060411l14.507266,0zm-14.699081,9.847408l0,-8.464611l5.554177,4.23226l-5.554177,4.232351zm0.191816,1.382797c-0.037957,0 -0.076433,-0.024311 -0.109845,-0.060455l6.380906,-4.862268l0.671651,0.511799c0.015925,0.012197 0.034369,0.017181 0.05116,0.027237c0.016402,0.009822 0.031725,0.01814 0.048907,0.026047c0.068029,0.031392 0.138619,0.05273 0.210159,0.05273c0.000262,0 0.000433,-0.00018 0.000695,-0.00018s0.000433,0.00018 0.000695,0.00018c0.07154,0 0.14213,-0.021338 0.21016,-0.05273c0.017181,-0.007907 0.032505,-0.016225 0.048905,-0.026047c0.016791,-0.010056 0.035235,-0.01504 0.051162,-0.027237l0.671303,-0.511566l6.381253,4.862078c-0.033413,0.036148 -0.071888,0.060413 -0.109846,0.060413l-14.507266,0z"/>
 </g>
</svg>