<?xml version="1.0" encoding="UTF-8" standalone="no"?>
<!DOCTYPE svg PUBLIC "-//W3C//DTD SVG 1.1//EN" "http://www.w3.org/Graphics/SVG/1.1/DTD/svg11.dtd">
<svg version="1.1" xmlns="http://www.w3.org/2000/svg" xmlns:xlink="http://www.w3.org/1999/xlink" preserveAspectRatio="xMidYMid meet" viewBox="0 0 30 30" width="30" height="30"><defs><path d="M30 15C30 23.28 23.28 30 15 30C6.72 30 0 23.28 0 15C0 6.72 6.72 0 15 0C23.28 0 30 6.72 30 15Z" id="bbijfCjcU"></path><path d="M26.83 13.07C26.72 11.81 25.65 10.82 24.4 10.82C23.83 10.82 19.23 10.82 18.66 10.82C18.94 9.9 19.4 8.21 19.4 6.85C19.4 4.7 17.68 2.89 16.61 2.89C15.64 2.89 14.95 3.47 14.92 3.49C14.81 3.58 14.75 3.73 14.75 3.88C14.75 4.1 14.75 5.22 14.75 7.24C14.57 7.66 13.67 9.72 12.07 13.43C12 13.47 11.96 13.49 11.95 13.49C11.95 13.38 11.95 13.32 11.95 13.3C11.95 13.03 11.75 12.81 11.49 12.81C11.02 12.81 7.3 12.81 6.84 12.81C5.56 12.81 4.51 13.92 4.51 15.29C4.51 16.08 4.51 22.43 4.51 23.23C4.51 24.6 5.56 25.71 6.84 25.71C7.12 25.71 9.35 25.71 9.63 25.71C10.63 25.71 11.49 25.02 11.82 24.07C12.59 24.49 13.63 24.72 14.28 24.72C15.13 24.72 21.96 24.72 22.82 24.72C23.83 24.72 24.72 23.99 24.93 22.98C25.03 22.47 24.97 21.95 24.76 21.49C25.45 21.12 25.91 20.37 25.91 19.51C25.91 19.16 25.83 18.82 25.69 18.52C26.38 18.15 26.84 17.39 26.84 16.53C26.84 15.93 26.62 15.38 26.23 14.97C26.67 14.46 26.89 13.78 26.83 13.07ZM24.61 18.61C24.85 18.85 24.98 19.17 24.98 19.51C24.98 20.13 24.53 20.66 23.95 20.73C23.77 20.75 23.62 20.88 23.56 21.07C23.5 21.25 23.55 21.45 23.68 21.59C23.99 21.89 24.11 22.33 24.02 22.77C23.9 23.32 23.4 23.72 22.82 23.72C21.96 23.72 15.13 23.72 14.28 23.72C13.53 23.72 12.26 23.35 11.82 22.88C11.69 22.74 11.48 22.69 11.31 22.77C11.14 22.85 11.02 23.03 11.02 23.23C11.02 24.05 10.4 24.72 9.63 24.72C9.35 24.72 7.12 24.72 6.84 24.72C6.07 24.72 5.44 24.05 5.44 23.23C5.44 22.43 5.44 16.08 5.44 15.29C5.44 14.47 6.07 13.8 6.84 13.8C7.12 13.8 8.51 13.8 11.02 13.8C11.02 14.1 11.02 14.26 11.02 14.3C11.02 14.47 11.11 14.63 11.25 14.72C11.38 14.81 11.55 14.82 11.7 14.74C11.79 14.69 12.54 14.29 12.63 14.24C12.72 14.19 12.8 14.11 12.84 14.01C13.12 13.36 15.35 8.2 15.63 7.56C15.66 7.49 15.68 7.42 15.68 7.35C15.68 7.03 15.68 4.47 15.68 4.15C15.87 4.03 16.2 3.88 16.61 3.88C17.12 3.88 18.47 5.23 18.47 6.85C18.47 8.6 17.58 11.12 17.57 11.14C17.51 11.3 17.53 11.47 17.62 11.6C17.71 11.74 17.85 11.82 18 11.82C18.64 11.82 23.76 11.82 24.4 11.82C25.18 11.82 25.84 12.41 25.9 13.17C25.95 13.73 25.7 14.27 25.24 14.57C25.1 14.66 25.01 14.83 25.02 15.01C25.02 15.19 25.12 15.35 25.27 15.43C25.66 15.65 25.91 16.07 25.91 16.53C25.91 17.16 25.46 17.68 24.88 17.75C24.7 17.78 24.54 17.91 24.49 18.09C24.43 18.27 24.48 18.48 24.61 18.61Z" id="acsL9dycz"></path><path d="M10.96 23.66C10.96 23.97 11.18 24.21 11.45 24.21C11.72 24.21 11.94 23.97 11.94 23.66C11.94 22.67 11.94 14.74 11.94 13.74C11.94 13.44 11.72 13.19 11.45 13.19C11.18 13.19 10.96 13.44 10.96 13.74C10.96 14.74 10.96 22.67 10.96 23.66Z" id="c5oXm9A7L"></path></defs><g><g><g><use xlink:href="#bbijfCjcU" opacity="1" fill="#ffffff" fill-opacity="1"></use><g><use xlink:href="#bbijfCjcU" opacity="1" fill-opacity="0" stroke="#ffffff" stroke-width="1" stroke-opacity="1"></use></g></g><g><use xlink:href="#acsL9dycz" opacity="1" fill="#212121" fill-opacity="1"></use><g><use xlink:href="#acsL9dycz" opacity="1" fill-opacity="0" stroke="#ffffff" stroke-width="1" stroke-opacity="0"></use></g></g><g><use xlink:href="#c5oXm9A7L" opacity="1" fill="#212121" fill-opacity="1"></use><g><use xlink:href="#c5oXm9A7L" opacity="1" fill-opacity="0" stroke="#ffffff" stroke-width="1" stroke-opacity="0"></use></g></g></g></g></svg>